<?xml version="1.0" encoding="UTF-8"?><svg id="Layer_1" xmlns="http://www.w3.org/2000/svg" viewBox="0 0 2048 2048"><defs><style>.cls-1{fill:#fff;}</style></defs><circle cx="1024" cy="1024" r="1014.83"/><g id="SOOvIr.tif"><path class="cls-1" d="m853.82,609.29c3.76,0,7.52,0,11.29,0,8.29,16.14,15.87,32.69,25.31,48.18,2.87,4.71,11.32,9.78,16.46,9.13,77.9-9.85,155.66-9.68,233.54.09,5.03.63,13.47-3.11,15.82-7.22,9.27-16.2,16.73-33.37,24.87-50.17,3.76,0,7.52,0,11.29,0,3.98,1.4,7.92,2.95,11.96,4.17,65.02,19.64,130.15,38.93,194.95,59.21,8.24,2.58,16.98,8.82,21.78,15.76,80.05,115.71,134.48,241.35,155.3,379.68,4.12,27.38,7.36,54.88,11.01,82.33v108.96c-1.37,10.09-2.12,20.32-4.36,30.23-1.36,6.02-3.36,13.73-7.91,16.97-81.86,58.29-171.37,102.3-268.6,131.31-4.13,1.23-12.15-.39-14.17-3.35-19.45-28.5-38-57.58-56.86-86.57,33.75-15.82,63.91-29.96,95.88-44.95-12.01-12.07-18.9-21.87-36.74-14.37-179.65,75.51-359.97,75-539.92,1.09-18.36-7.54-27.24-1.15-38.49,13.61,31.58,14.84,61.72,28.99,95.07,44.66-17.46,27.22-34.89,53.51-51.32,80.38-6.78,11.09-14.21,12.14-26.25,8.27-91.62-29.48-177.11-70.53-255.04-125.64-7.34-5.19-13.88-15.97-14.61-24.65-18.25-215.84,36.17-413.79,159.49-594.24,5.46-7.98,14.47-15.71,23.59-19.02,44.5-16.15,89.38-31.39,134.57-45.65,23.57-7.44,48.04-12.21,72.11-18.19Zm459.05,456.69c-.05-63.23-47.55-111.37-107.37-108.84-47.02,1.99-86.17,40.54-94.71,93.23-10.82,66.83,41.42,129.27,105.73,126.36,54.1-2.44,96.4-51.06,96.35-110.75Zm-374.71-.08c0-59.28-43.39-107.49-97.93-108.8-59.7-1.44-107.48,50.09-104.94,113.19,2.5,62.14,49.44,108.98,106.63,106.41,53.96-2.42,96.23-51.09,96.23-110.8Z"/></g></svg>