<?xml version="1.0" encoding="UTF-8"?><svg id="Layer_1" xmlns="http://www.w3.org/2000/svg" viewBox="0 0 2048 2048"><defs><style>.cls-1{fill:#fff;}</style></defs><g id="gtg3Er.tif"><g><path d="m8.81,1087.25c0-42.29,0-84.58,0-126.88,2.45-18.9,5.08-37.77,7.33-56.7,23.54-198.09,96.49-376.53,227.03-526.84C508.63,71.19,843.92-46.17,1241.18,33.32c451.58,90.35,789.45,503.13,797.81,963.51,3.54,194.82-40.75,377.62-142.32,544.28-160.31,263.06-392.63,424.36-695.84,481.95-37.45,7.11-75.58,10.6-113.4,15.77h-126.9c-24.78-3.05-49.61-5.69-74.32-9.22-202.07-28.85-380.78-109.45-533.42-245.09-176.29-156.64-286.42-351.34-328.21-583.83-6.75-37.54-10.59-75.61-15.78-113.43Zm988.58,221.1c-3.03.88-4.89,1.9-6.76,1.91-43.61.17-87.22.55-130.83.25-67.5-.46-107.98-39.65-110.75-107.58-.52-12.73-5.02-17.47-17.7-17.43-93.17.29-186.35.33-279.52-.03-13.65-.05-17.62,6.28-16.39,18.24,2.36,22.95,2.7,46.36,7.66,68.75,35.58,160.57,170.5,267.91,337.39,268.42,165.86.51,331.76-1.86,497.57,1.03,72.41,1.26,127.34-25.69,168.71-81.66,32.91-44.52,63.41-90.99,92.51-138.12,25.12-40.67,56.57-75.32,100.57-91.95,41.98-15.87,52.45-41.9,47.17-82.37-2.93-22.48-2.65-24.39-24.37-18.14-76.7,22.06-152.99,45.69-230.19,65.81-44.52,11.6-84.43,27.7-113.13,65.65-7.44,9.83-17.41,18.55-27.9,25.06-14.37,8.91-29.98,20.54-45.71,21.62-43.25,2.96-86.83,1.02-131.05,1.02v-111.54c26.57,0,51.63.66,76.62-.39,7.83-.33,17.3-3.24,22.92-8.37,49.01-44.73,92.53-94.21,126.36-151.64,39.43-66.95,43.32-135.33,10.17-206.22-26.67-57.04-63.71-106.67-107.65-150.8-34.88-35.04-71.47-68.91-110.78-98.72-15.78-11.97-19.89-22.11-19.45-39.28.65-25.07.71-50.25-.97-75.25-1.68-24.9-16.32-41.68-39.88-49.01-34.83-10.84-69.61,12.72-72.37,49.57-1.7,22.71-.32,45.66-.32,71.4-54.32-14.33-104.68-27.61-155.56-41.03-.64,5.63-1.29,7.14-.85,8.17,2.08,4.83,4.28,9.63,6.76,14.26,40.93,76.48,73.14,156.4,96.68,239.94,31.29,111.05,27.6,217.87-35.31,318.38-19.25,30.76-38.19,61.73-56.76,92.91-3.75,6.31-5.19,13.99-7.7,21.04,7.43,1.69,14.84,4.72,22.29,4.83,36.34.51,72.69.18,109.03.28,6.33.02,12.66.71,19.47,1.12v109.89Zm-345.13-236.81c30.37,0,61.17-3.21,91.01.78,40.58,5.42,61.37-11.37,78.65-46.58,25.75-52.46,47.08-104.4,39.27-164.47-9.88-75.97-34.85-147.28-65.24-216.97-5.96-13.67-13.17-13.39-22.11.56-86.47,134.97-172.83,270.01-259.07,405.13-10.6,16.61-7.67,21.4,12.71,21.49,41.59.19,83.19.06,124.78.06Z"/><path class="cls-1" d="m997.39,1308.35v-109.89c-6.81-.41-13.14-1.1-19.47-1.12-36.34-.11-72.69.22-109.03-.28-7.45-.1-14.86-3.14-22.29-4.83,2.51-7.05,3.94-14.73,7.7-21.04,18.57-31.18,37.5-62.15,56.76-92.91,62.91-100.5,66.6-207.33,35.31-318.38-23.54-83.54-55.75-163.46-96.68-239.94-2.48-4.64-4.68-9.43-6.76-14.26-.45-1.03.21-2.54.85-8.17,50.88,13.42,101.24,26.7,155.56,41.03,0-25.74-1.39-48.69.32-71.4,2.76-36.85,37.54-60.41,72.37-49.57,23.56,7.34,38.2,24.12,39.88,49.01,1.69,25,1.63,50.18.97,75.25-.45,17.17,3.67,27.31,19.45,39.28,39.31,29.81,75.9,63.69,110.78,98.72,43.94,44.13,80.98,93.76,107.65,150.8,33.14,70.89,29.26,139.27-10.17,206.22-33.83,57.44-77.36,106.91-126.36,151.64-5.62,5.13-15.09,8.04-22.92,8.37-24.99,1.05-50.05.39-76.62.39v111.54c44.21,0,87.8,1.94,131.05-1.02,15.72-1.08,31.34-12.71,45.71-21.62,10.5-6.51,20.47-15.23,27.9-25.06,28.7-37.95,68.61-54.05,113.13-65.65,77.21-20.11,153.49-43.74,230.19-65.81,21.72-6.25,21.43-4.34,24.37,18.14,5.28,40.47-5.19,66.49-47.17,82.37-44,16.64-75.46,51.28-100.57,91.95-29.1,47.13-59.6,93.59-92.51,138.12-41.37,55.97-96.29,82.92-168.71,81.66-165.81-2.9-331.71-.52-497.57-1.03-166.89-.52-301.81-107.85-337.39-268.42-4.96-22.38-5.3-45.8-7.66-68.75-1.23-11.96,2.74-18.29,16.39-18.24,93.17.36,186.35.32,279.52.03,12.67-.04,17.18,4.69,17.7,17.43,2.77,67.93,43.25,107.12,110.75,107.58,43.61.3,87.22-.08,130.83-.25,1.87,0,3.74-1.02,6.76-1.91Z"/><path class="cls-1" d="m652.26,1071.54c-41.59,0-83.19.13-124.78-.06-20.38-.09-23.31-4.88-12.71-21.49,86.24-135.12,172.59-270.16,259.07-405.13,8.94-13.95,16.15-14.24,22.11-.56,30.39,69.69,55.37,141.01,65.24,216.97,7.81,60.07-13.52,112.01-39.27,164.47-17.28,35.21-38.08,52-78.65,46.58-29.84-3.99-60.64-.78-91.01-.78Z"/></g></g></svg>