<?xml version="1.0" encoding="UTF-8"?><svg id="Layer_1" xmlns="http://www.w3.org/2000/svg" viewBox="0 0 2048 2048"><defs><style>.cls-1{fill:#fff;}</style></defs><circle cx="1024" cy="1024" r="1014.83"/><g id="cM2men.tif"><path class="cls-1" d="m1470.44,1480.2c-1-.02-2.01-.05-3.01-.05-86.64,0-173.29-.01-259.93.05-2.22,0-3.41-.72-4.64-2.51-51.65-75.25-103.36-150.46-155.06-225.68-28.4-41.31-56.78-82.63-85.18-123.94-.43-.63-.9-1.22-1.52-2.05-1.78,2.04-3.46,3.92-5.1,5.84-64.57,75.05-129.14,150.1-193.71,225.15-34.71,40.34-69.44,80.67-104.11,121.05-1.34,1.56-2.68,2.14-4.72,2.14-24.26-.07-48.51-.04-72.77-.04-.84,0-1.67,0-3.13,0,116.41-135.29,232.48-270.18,348.6-405.12-5.8-8.45-11.5-16.75-17.2-25.05-29.66-43.17-59.33-86.33-89-129.5-33.71-49.04-67.42-98.07-101.12-147.11-35.77-52.04-71.52-104.09-107.28-156.14-11.32-16.47-22.65-32.94-33.97-49.41,88.67,0,177.33,0,266,0,.45.72.87,1.46,1.35,2.16,29.31,42.65,58.61,85.31,87.92,127.96,43.62,63.47,87.23,126.93,130.85,190.39,3.37,4.9,6.75,9.79,10.25,14.86,1.49-1.71,2.82-3.21,4.13-4.73,69.31-80.56,138.63-161.12,207.94-241.68,25.51-29.65,51.02-59.31,76.53-88.96,26.2,0,52.39,0,78.59,0-.51.67-1,1.37-1.55,2.01-50.78,59.02-101.56,118.04-152.34,177.06-58.87,68.41-117.74,136.83-176.64,205.22-1.23,1.42-1.52,2.35-.32,4.08,33.55,48.68,67.03,97.41,100.51,146.13,36.42,53,72.84,106.01,109.26,159.02,46.34,67.43,92.69,134.87,139.05,202.29,3.72,5.41,7.55,10.74,11.32,16.11v.47Zm-108.01-56.68c-.62-1-.98-1.66-1.4-2.27-50.43-72.14-100.86-144.27-151.3-216.4-60.79-86.93-121.58-173.84-182.37-260.77-73.44-105.02-146.87-210.04-220.27-315.09-1.02-1.46-2.06-1.96-3.8-1.95-38.52.05-77.03.04-115.55.04h-2.86c.64,1.02,1.01,1.67,1.43,2.28,62.47,89.34,124.94,178.68,187.41,268.01,67.17,96.07,134.34,192.15,201.51,288.22,54.97,78.61,109.95,157.21,164.87,235.84,1.11,1.6,2.25,2.14,4.16,2.14,38.44-.06,76.88-.04,115.31-.04h2.84Z"/></g></svg>