<svg width="44" height="44" viewBox="0 0 44 44" fill="none" xmlns="http://www.w3.org/2000/svg">
<circle cx="22" cy="22" r="22" fill="black"/>
<path d="M19.4883 23.204C19.4883 22.6667 19.664 22.2223 20.0153 21.871C20.3667 21.499 20.811 21.313 21.3483 21.313C22.7123 21.313 23.8077 20.9927 24.6343 20.352C25.461 19.7113 25.8743 18.7193 25.8743 17.376C25.8743 16.3427 25.5023 15.485 24.7583 14.803C24.0143 14.121 23.0843 13.78 21.9683 13.78C20.8317 13.78 19.8293 14.1623 18.9613 14.927C18.4653 15.3817 17.9487 15.609 17.4113 15.609C17.0187 15.609 16.6673 15.485 16.3573 15.237C15.82 14.8237 15.5513 14.338 15.5513 13.78C15.5513 13.3047 15.7477 12.8707 16.1403 12.478C16.8843 11.7133 17.7523 11.1243 18.7443 10.711C19.757 10.277 20.8317 10.06 21.9683 10.06C23.3737 10.06 24.655 10.3803 25.8123 11.021C26.9697 11.6617 27.8893 12.5503 28.5713 13.687C29.2533 14.803 29.5943 16.0327 29.5943 17.376C29.5943 19.36 29.026 20.9307 27.8893 22.088C26.7527 23.2453 25.244 23.9687 23.3633 24.258C23.26 24.2993 23.2083 24.351 23.2083 24.413V25.56C23.2083 26.0973 23.0327 26.552 22.6813 26.924C22.33 27.2753 21.8857 27.451 21.3483 27.451C20.811 27.451 20.3667 27.2753 20.0153 26.924C19.664 26.552 19.4883 26.0973 19.4883 25.56V23.204ZM21.1933 33C20.594 33 20.129 32.845 19.7983 32.535C19.4883 32.2043 19.3333 31.7393 19.3333 31.14V30.613C19.3333 30.0137 19.4883 29.559 19.7983 29.249C20.129 28.9183 20.594 28.753 21.1933 28.753H21.5963C22.1957 28.753 22.6503 28.9183 22.9603 29.249C23.291 29.559 23.4563 30.0137 23.4563 30.613V31.14C23.4563 31.7393 23.291 32.2043 22.9603 32.535C22.6503 32.845 22.1957 33 21.5963 33H21.1933Z" fill="white"/>
</svg>
