<svg width="21" height="21" viewBox="0 0 21 21" fill="none" xmlns="http://www.w3.org/2000/svg">
<circle cx="10.5" cy="10.5" r="10.5" fill="white"/>
<path d="M9.42984 11.26C9.42984 11 9.51484 10.785 9.68484 10.615C9.85484 10.435 10.0698 10.345 10.3298 10.345C10.9898 10.345 11.5198 10.19 11.9198 9.88C12.3198 9.57 12.5198 9.09 12.5198 8.44C12.5198 7.94 12.3398 7.525 11.9798 7.195C11.6198 6.865 11.1698 6.7 10.6298 6.7C10.0798 6.7 9.59484 6.885 9.17484 7.255C8.93484 7.475 8.68484 7.585 8.42484 7.585C8.23484 7.585 8.06484 7.525 7.91484 7.405C7.65484 7.205 7.52484 6.97 7.52484 6.7C7.52484 6.47 7.61984 6.26 7.80984 6.07C8.16984 5.7 8.58984 5.415 9.06984 5.215C9.55984 5.005 10.0798 4.9 10.6298 4.9C11.3098 4.9 11.9298 5.055 12.4898 5.365C13.0498 5.675 13.4948 6.105 13.8248 6.655C14.1548 7.195 14.3198 7.79 14.3198 8.44C14.3198 9.4 14.0448 10.16 13.4948 10.72C12.9448 11.28 12.2148 11.63 11.3048 11.77C11.2548 11.79 11.2298 11.815 11.2298 11.845V12.4C11.2298 12.66 11.1448 12.88 10.9748 13.06C10.8048 13.23 10.5898 13.315 10.3298 13.315C10.0698 13.315 9.85484 13.23 9.68484 13.06C9.51484 12.88 9.42984 12.66 9.42984 12.4V11.26ZM10.2548 16C9.96484 16 9.73984 15.925 9.57984 15.775C9.42984 15.615 9.35484 15.39 9.35484 15.1V14.845C9.35484 14.555 9.42984 14.335 9.57984 14.185C9.73984 14.025 9.96484 13.945 10.2548 13.945H10.4498C10.7398 13.945 10.9598 14.025 11.1098 14.185C11.2698 14.335 11.3498 14.555 11.3498 14.845V15.1C11.3498 15.39 11.2698 15.615 11.1098 15.775C10.9598 15.925 10.7398 16 10.4498 16H10.2548Z" fill="black"/>
</svg>
