<svg width="21" height="21" viewBox="0 0 21 21" fill="none" xmlns="http://www.w3.org/2000/svg">
<path d="M17.1974 8.57331L10.7042 1.93698C10.6259 1.85804 10.5328 1.79539 10.4301 1.75264C10.3275 1.70988 10.2174 1.68787 10.1063 1.68787C9.99509 1.68787 9.88501 1.70988 9.78239 1.75264C9.67976 1.79539 9.58662 1.85804 9.50832 1.93698L3.01517 8.58173C2.85805 8.74011 2.73396 8.92813 2.65011 9.13487C2.56626 9.34161 2.52431 9.56295 2.52671 9.78603V16.8434C2.52606 17.2746 2.69074 17.6895 2.98685 18.0029C3.28296 18.3162 3.68795 18.5041 4.11842 18.5278H16.0941C16.5246 18.5041 16.9296 18.3162 17.2257 18.0029C17.5218 17.6895 17.6865 17.2746 17.6858 16.8434V9.78603C17.6865 9.33373 17.5113 8.89888 17.1974 8.57331ZM8.42192 16.8434V11.7904H11.7906V16.8434H8.42192ZM16.0015 16.8434H13.475V10.9482C13.475 10.7249 13.3862 10.5107 13.2283 10.3527C13.0704 10.1948 12.8561 10.1061 12.6328 10.1061H7.57975C7.35639 10.1061 7.14218 10.1948 6.98424 10.3527C6.8263 10.5107 6.73757 10.7249 6.73757 10.9482V16.8434H4.21106V9.75235L10.1063 3.73081L16.0015 9.78603V16.8434Z" fill="black"/>
</svg>
