<svg width="51" height="51" viewBox="0 0 51 51" fill="none" xmlns="http://www.w3.org/2000/svg">
<path d="M40.2051 42.5264H10.8074C10.2504 42.5264 9.71634 42.7476 9.32255 43.1414C8.92875 43.5352 8.70752 44.0693 8.70752 44.6262C8.70752 45.1831 8.92875 45.7172 9.32255 46.111C9.71634 46.5048 10.2504 46.726 10.8074 46.726H40.2051C40.762 46.726 41.2961 46.5048 41.6899 46.111C42.0837 45.7172 42.3049 45.1831 42.3049 44.6262C42.3049 44.0693 42.0837 43.5352 41.6899 43.1414C41.2961 42.7476 40.762 42.5264 40.2051 42.5264Z" fill="white"/>
<path d="M10.8064 38.3267H10.9954L19.7517 37.5288C20.7109 37.4332 21.6081 37.0106 22.2925 36.3319L41.1911 17.4333C41.9246 16.6584 42.321 15.6243 42.2934 14.5577C42.2659 13.491 41.8166 12.4788 41.0441 11.7428L35.2905 5.9892C34.5396 5.28386 33.5556 4.87914 32.5257 4.85204C31.4958 4.82494 30.4919 5.17734 29.705 5.84222L10.8064 24.7408C10.1277 25.4252 9.70506 26.3224 9.60951 27.2816L8.70658 36.0379C8.67829 36.3454 8.7182 36.6555 8.82346 36.9458C8.92872 37.2362 9.09673 37.4998 9.31553 37.7177C9.51174 37.9124 9.74444 38.0663 10.0003 38.1708C10.2561 38.2753 10.5301 38.3283 10.8064 38.3267ZM32.3717 8.92898L38.1043 14.6615L33.9046 18.7562L28.2771 13.1287L32.3717 8.92898ZM13.6832 27.6385L25.5053 15.9004L31.1748 21.57L19.4158 33.3291L13.1162 33.917L13.6832 27.6385Z" fill="white"/>
</svg>
