<svg width="41" height="41" viewBox="0 0 41 41" fill="none" xmlns="http://www.w3.org/2000/svg">
<path d="M20.7805 23.938C22.6131 23.938 24.0987 22.4524 24.0987 20.6199C24.0987 18.7873 22.6131 17.3018 20.7805 17.3018C18.948 17.3018 17.4624 18.7873 17.4624 20.6199C17.4624 22.4524 18.948 23.938 20.7805 23.938Z" fill="white"/>
<path d="M32.3948 23.938C34.2273 23.938 35.7129 22.4524 35.7129 20.6199C35.7129 18.7873 34.2273 17.3018 32.3948 17.3018C30.5622 17.3018 29.0767 18.7873 29.0767 20.6199C29.0767 22.4524 30.5622 23.938 32.3948 23.938Z" fill="white"/>
<path d="M9.16872 23.938C11.0013 23.938 12.4868 22.4524 12.4868 20.6199C12.4868 18.7873 11.0013 17.3018 9.16872 17.3018C7.33616 17.3018 5.85059 18.7873 5.85059 20.6199C5.85059 22.4524 7.33616 23.938 9.16872 23.938Z" fill="white"/>
</svg>
