<svg width="23" height="23" viewBox="0 0 23 23" fill="none" xmlns="http://www.w3.org/2000/svg">
<path d="M0 0.00505679C0.14736 0.00505679 0.240445 0.00505679 0.33381 0.00505679C2.40895 0.00505679 4.4838 0.00814184 6.55893 8.51361e-06C6.76423 -0.000832865 6.8829 0.0605878 7.00102 0.229424C8.86439 2.89267 10.7354 5.5503 12.6055 8.20878C12.6589 8.2845 12.7199 8.35518 12.7956 8.45166C13.3763 7.7937 13.9402 7.15593 14.5023 6.51733C16.3505 4.41865 18.1998 2.32109 20.0424 0.217645C20.183 0.0572223 20.3267 -0.0047593 20.5368 0.000288973C21.0756 0.0134706 21.6153 0.00477633 22.2483 0.00477633C19.352 3.29541 16.5218 6.51116 13.6817 9.7384C16.7774 14.1422 19.8655 18.5347 23 22.9935H22.5886C20.5455 22.9935 18.5027 22.9904 16.4596 22.998C16.247 22.9988 16.1174 22.9388 15.9917 22.7593C13.9936 19.9048 11.9871 17.0562 9.98225 14.2064C9.95187 14.1632 9.9201 14.1209 9.87454 14.0586C9.23307 14.7864 8.5992 15.5044 7.96645 16.2235C6.05611 18.3951 4.14436 20.5655 2.23993 22.7422C2.07851 22.9267 1.914 23.0081 1.66568 22.9994C1.13642 22.9806 0.606033 22.9938 0.000562443 22.9938C0.533196 22.388 1.01577 21.8383 1.49919 21.2894C3.90392 18.558 6.3064 15.8247 8.71816 13.0994C8.91501 12.877 8.96338 12.7388 8.76877 12.4642C6.56006 9.35081 4.36962 6.22425 2.17469 3.10105C1.46263 2.08915 0.752549 1.07669 0 0.00505679ZM2.77228 1.49402C2.80772 1.57619 2.81503 1.60732 2.83218 1.63116C3.66319 2.7931 4.49561 3.95449 5.32718 5.11615C7.72291 8.46287 10.1189 11.8096 12.5141 15.1569C13.997 17.2292 15.481 19.301 16.9577 21.3778C17.0704 21.5362 17.1877 21.5931 17.3787 21.5909C18.2237 21.5814 19.0688 21.5873 19.9139 21.5856C20.003 21.5856 20.0922 21.5718 20.2061 21.5623C20.1692 21.4866 20.1557 21.4456 20.1321 21.4125C18.1211 18.6032 16.1084 15.7952 14.0976 12.9858C12.5093 10.766 10.9238 8.54393 9.33628 6.32353C8.24486 4.79699 7.15316 3.27045 6.05611 1.74811C5.98215 1.64575 5.8615 1.50664 5.76026 1.50495C4.77824 1.48672 3.79565 1.49402 2.772 1.49402H2.77228Z" fill="white"/>
</svg>
